# xmcd
#
# Track frame offsets:
#	150
#	20408
#	40493
#	60162
#	80431
#	99310
#	116657
#	135825
#	164419
#	183562
#
# Disc length: 2700 seconds
#
# Revision: 0
# Processed by: cddbd v1.5.1PL0 Copyright (c) Steve Scherf et al.
# Submitted via: dBpowerAMP V4.0
#
DISCID=760a8a0a
DTITLE=Bill Lyerly Band - Cobalt Blues
DYEAR=2001
DGENRE=Blues
TTITLE0=I Won't Care
TTITLE1=Willy And The Handjive
TTITLE2=Uh Huh
TTITLE3=FM Shoes
TTITLE4=Dark Glasses
TTITLE5=Strange Feeling
TTITLE6=Cobalt Blues/Done Somebody Wrong
TTITLE7=Crazy Mama
TTITLE8=You Never Know
TTITLE9=I've Got Your Number
EXTD=
EXTT0=
EXTT1=
EXTT2=
EXTT3=
EXTT4=
EXTT5=
EXTT6=
EXTT7=
EXTT8=
EXTT9=
PLAYORDER=
